<svg xmlns="http://www.w3.org/2000/svg" xmlns:xlink="http://www.w3.org/1999/xlink" viewBox="0 0 682.86 417"><defs><style>.cls-1{fill:none;}.cls-2{clip-path:url(#clip-path);}.cls-3{fill:#fff;}.cls-4{fill:#90bd51;}.cls-5{fill:#21c2e4;}.cls-6{fill:#78a9db;}.cls-7{fill:#febb12;}.cls-8{fill:#58595b;}</style><clipPath id="clip-path" transform="translate(0 0)"><rect class="cls-1" width="682.86" height="417"/></clipPath></defs><title>Asset 1koriste</title><g id="Layer_2" data-name="Layer 2"><g id="Layer_1-2" data-name="Layer 1"><g class="cls-2"><path class="cls-3" d="M682.25,417V31.38S682.25,0,650.87,0H4.39V385.62S4.39,417,35.77,417H682.25Z" transform="translate(0 0)"/><path class="cls-4" d="M352,66.13v64.65s0,9.32-9.32,9.32H278V75.45s0-9.32,9.32-9.32Z" transform="translate(0 0)"/><path class="cls-5" d="M256.53,144.8v85.78s0,12.36-12.36,12.36H158.39V157.17s0-12.36,12.36-12.36Z" transform="translate(0 0)"/><path class="cls-6" d="M239.93,206.6v56.76s0,8.18-8.18,8.18H175V214.78s0-8.18,8.18-8.18Z" transform="translate(0 0)"/><path class="cls-6" d="M153.61,242.94H96.85s-8.18,0-8.18-8.18V178h56.76s8.18,0,8.18,8.18Z" transform="translate(0 0)"/><path class="cls-7" d="M199.3,295.46H163.55s-5.15,0-5.15-5.15V254.55h35.76s5.15,0,5.15,5.15Z" transform="translate(0 0)"/><path class="cls-8" d="M100.42,301.59V255.11s0-6.7,6.7-6.7h46.48v46.48s0,6.7-6.7,6.7Z" transform="translate(0 0)"/><path class="cls-7" d="M202.35,295.46H231s4.12,0,4.12,4.12v28.61H206.48s-4.12,0-4.12-4.12Z" transform="translate(0 0)"/><path class="cls-5" d="M115.33,138.73H146.4s4.48,0,4.48,4.48v31.07H119.81s-4.48,0-4.48-4.48Z" transform="translate(0 0)"/><path class="cls-8" d="M71.37,331V308.11a3.23,3.23,0,0,1,3.3-3.3H97.56v22.88a3.23,3.23,0,0,1-3.3,3.3Z" transform="translate(0 0)"/><path class="cls-7" d="M261.72,185.88V150s0-5.17,5.17-5.17h35.9v35.9s0,5.17-5.17,5.17Z" transform="translate(0 0)"/><path class="cls-7" d="M236.21,328.19h77s11.1,0,11.1,11.1v77h-77s-11.1,0-11.1-11.1Z" transform="translate(0 0)"/><path class="cls-5" d="M97.56,99.45h31.07s4.48,0,4.48,4.48V135H102s-4.48,0-4.48-4.48Z" transform="translate(0 0)"/><path class="cls-5" d="M161.13,109.7H139a3.12,3.12,0,0,0-3.19,3.19V135h22.1a3.12,3.12,0,0,0,3.19-3.19Z" transform="translate(0 0)"/><path class="cls-5" d="M94.82,135V116.2a2.65,2.65,0,0,0-2.71-2.71H73.32v18.79A2.65,2.65,0,0,0,76,135Z" transform="translate(0 0)"/><path class="cls-4" d="M94.82,110.2V80.13s0-4.33-4.33-4.33H60.43v30.06s0,4.33,4.33,4.33Z" transform="translate(0 0)"/><path class="cls-7" d="M359.25,140.48V54.7s0-12.36,12.36-12.36h85.77v85.77s0,12.36-12.36,12.36Z" transform="translate(0 0)"/><path class="cls-6" d="M414.42,78.06V21.3s0-8.18,8.18-8.18h56.76V69.87s0,8.18-8.18,8.18Z" transform="translate(0 0)"/><path class="cls-8" d="M374.61,197.92v56.76s0,8.18-8.18,8.18H309.67V206.11s0-8.18,8.18-8.18Z" transform="translate(0 0)"/><path class="cls-4" d="M240.32,57.25h27.13s3.91,0,3.91,3.91V88.29H244.23s-3.91,0-3.91-3.91Z" transform="translate(0 0)"/><path class="cls-8" d="M427.79,144v46.48s0,6.7-6.7,6.7H374.61V150.68s0-6.7,6.7-6.7Z" transform="translate(0 0)"/><path class="cls-4" d="M236.17,54.22h-21.7a3.06,3.06,0,0,1-3.13-3.13V29.38H233a3.06,3.06,0,0,1,3.13,3.13Z" transform="translate(0 0)"/><path class="cls-5" d="M539,100.89H508s-4.48,0-4.48-4.48V65.34h31.07s4.48,0,4.48,4.48Z" transform="translate(0 0)"/><path class="cls-4" d="M236.17,57.25V74.61a2.45,2.45,0,0,1-2.5,2.5H216.3V59.75a2.45,2.45,0,0,1,2.5-2.5Z" transform="translate(0 0)"/><path class="cls-4" d="M213,58.18V81.62A3.31,3.31,0,0,1,209.58,85H186.14V61.56a3.31,3.31,0,0,1,3.38-3.38Z" transform="translate(0 0)"/><path class="cls-4" d="M206.95,53.79H180s-3.89,0-3.89-3.89V23h27s3.89,0,3.89,3.88Z" transform="translate(0 0)"/><path class="cls-4" d="M567,140.17H536s-4.48,0-4.48-4.48V104.62h31.07s4.48,0,4.48,4.48Z" transform="translate(0 0)"/><path class="cls-5" d="M503.48,129.91h22.1a3.12,3.12,0,0,0,3.19-3.19V104.62H506.66a3.12,3.12,0,0,0-3.19,3.19Z" transform="translate(0 0)"/><path class="cls-4" d="M569.78,104.62v18.79a2.65,2.65,0,0,0,2.71,2.71h18.79V107.33a2.65,2.65,0,0,0-2.71-2.71Z" transform="translate(0 0)"/><path class="cls-4" d="M569.78,129.42v30.06s0,4.33,4.33,4.33h30.06V133.75s0-4.33-4.33-4.33Z" transform="translate(0 0)"/><path class="cls-4" d="M0,15.37H52.81s7.61,0,7.61,7.61V75.8H7.61S0,75.8,0,68.19Z" transform="translate(0 0)"/><path class="cls-7" d="M308,144.8h28.6s4.12,0,4.12,4.12v28.6H312.11s-4.12,0-4.12-4.12Z" transform="translate(0 0)"/><path class="cls-4" d="M224.26,93h41.16s5.93,0,5.93,5.93V140.1H230.2s-5.93,0-5.93-5.93Z" transform="translate(0 0)"/><path class="cls-7" d="M345.9,145.28H365.3s4.12,0,4.12,4.12v21.17H350s-4.12,0-4.12-4.12Z" transform="translate(0 0)"/><path class="cls-8" d="M53.08,404.28V347.65s0-8.16,8.16-8.16h56.63v56.63s0,8.16-8.16,8.16Z" transform="translate(0 0)"/><path class="cls-8" d="M35.28,336.56V308.81s0-4,4-4H67v27.75s0,4-4,4Z" transform="translate(0 0)"/><path class="cls-6" d="M433.05,142.48h56.76s8.18,0,8.18,8.18v56.76H441.24s-8.18,0-8.18-8.18Z" transform="translate(0 0)"/><path class="cls-4" d="M567,142.48H510.29s-8.18,0-8.18,8.18v56.76h56.76s8.18,0,8.18-8.18Z" transform="translate(0 0)"/><path class="cls-5" d="M539,246.46H508s-4.48,0-4.48-4.48V210.91h31.07s4.48,0,4.48,4.48Z" transform="translate(0 0)"/><path class="cls-5" d="M567,285.74H536s-4.48,0-4.48-4.48V250.19h31.07s4.48,0,4.48,4.48Z" transform="translate(0 0)"/><path class="cls-5" d="M503.48,275.48h22.1a3.12,3.12,0,0,0,3.19-3.19V250.19H506.66a3.12,3.12,0,0,0-3.19,3.19Z" transform="translate(0 0)"/><path class="cls-5" d="M569.78,289.37v18.79a2.65,2.65,0,0,0,2.71,2.71h18.79V292.08a2.65,2.65,0,0,0-2.71-2.71Z" transform="translate(0 0)"/><path class="cls-5" d="M544.1,210.47v30.06s0,4.33,4.33,4.33H578.5V214.81s0-4.33-4.33-4.33Z" transform="translate(0 0)"/><path class="cls-7" d="M500.55,214H425.27s-10.85,0-10.85,10.85v75.28H489.7s10.85,0,10.85-10.85Z" transform="translate(0 0)"/><path class="cls-4" d="M594.72,125.9v-77s0-11.11,11.1-11.11h77v77s0,11.1-11.11,11.1Z" transform="translate(0 0)"/><path class="cls-5" d="M395.32,319.48V262.73s0-8.18,8.18-8.18h56.76V311.3s0,8.18-8.18,8.18Z" transform="translate(0 0)"/><path class="cls-5" d="M339.19,268v44.1s0,6.36,6.36,6.36h44.1v-44.1s0-6.36-6.36-6.36Z" transform="translate(0 0)"/><path class="cls-5" d="M395.32,325.26v80.18s0,11.56,11.56,11.56h80.18V336.82s0-11.56-11.56-11.56Z" transform="translate(0 0)"/><path class="cls-5" d="M389.64,325.26h-28s-4,0-4,4v28h28s4,0,4-4Z" transform="translate(0 0)"/><path class="cls-6" d="M84.47,178.44V212.5s0,4.91-4.91,4.91H45.5V183.35s0-4.91,4.91-4.91Z" transform="translate(0 0)"/><path class="cls-6" d="M83.2,175V154.28a2.92,2.92,0,0,0-3-3H59.55V172a2.92,2.92,0,0,0,3,3Z" transform="translate(0 0)"/><path class="cls-5" d="M329.8,164.65v51.08s0,7.36-7.36,7.36H271.36V172s0-7.36,7.36-7.36Z" transform="translate(0 0)"/><path class="cls-6" d="M563.8,289.37v51.08s0,7.36-7.36,7.36H505.36V296.74s0-7.36,7.36-7.36Z" transform="translate(0 0)"/><path class="cls-6" d="M659,209.52v66.4s0,9.57-9.57,9.57H583.07v-66.4s0-9.57,9.57-9.57Z" transform="translate(0 0)"/></g></g></g></svg>