<svg xmlns="http://www.w3.org/2000/svg" xmlns:xlink="http://www.w3.org/1999/xlink" viewBox="0 0 251.22 77.83"><defs><style>.cls-1{fill:none;}.cls-2{clip-path:url(#clip-path);}.cls-3{fill:#9caa50;}.cls-4{fill:#e89724;}.cls-5{fill:#e7bc20;}.cls-6,.cls-7{fill:#57bfe1;}.cls-7{font-size:30.19px;font-family:Avenir-Black, Avenir;}.cls-8{letter-spacing:0.01em;}.cls-9{letter-spacing:0.03em;}.cls-10{letter-spacing:0.05em;}.cls-11{letter-spacing:0.01em;}.cls-12{letter-spacing:-0.02em;}.cls-13{letter-spacing:0.03em;}.cls-14{letter-spacing:0.07em;}</style><clipPath id="clip-path"><rect class="cls-1" width="267.67" height="94.66"/></clipPath></defs><title>Asset 2logo</title><g id="Layer_2" data-name="Layer 2"><g id="Layer_1-2" data-name="Layer 1"><g class="cls-2"><path class="cls-3" d="M0,10.44V32.66a3.14,3.14,0,0,0,3.2,3.2H25.42V13.65a3.14,3.14,0,0,0-3.2-3.2Z"/><path class="cls-4" d="M30.43,41.12V61a2.81,2.81,0,0,0,2.87,2.87H53.22V44a2.81,2.81,0,0,0-2.87-2.87Z"/><path class="cls-5" d="M25.42,41.12H11.69a1.94,1.94,0,0,0-2,2V56.83H23.44a1.94,1.94,0,0,0,2-2Z"/><path class="cls-6" d="M30.43,35.74V4.5s0-4.5,4.5-4.5H66.17V31.24s0,4.5-4.5,4.5Z"/></g><text class="cls-7" transform="translate(76.68 37.56)"><tspan class="cls-8">K</tspan><tspan class="cls-9" x="22.1" y="0">O</tspan><tspan class="cls-10" x="48.13" y="0">KE</tspan><tspan class="cls-9" x="91.96" y="0">I</tspan><tspan class="cls-8" x="101.8" y="0">L</tspan><tspan class="cls-11" x="118.32" y="0">U</tspan><tspan x="140.96" y="0">N</tspan></text><text class="cls-7" transform="translate(242.28 37.56)"> </text><text class="cls-7" transform="translate(76.68 64.03)"><tspan class="cls-12">P</tspan><tspan class="cls-13" x="18.33" y="0">A</tspan><tspan class="cls-9" x="41.57" y="0">IK</tspan><tspan class="cls-14" x="74.12" y="0">K</tspan><tspan x="98.03" y="0">A</tspan></text></g></g></svg>