<svg xmlns="http://www.w3.org/2000/svg" xmlns:xlink="http://www.w3.org/1999/xlink" viewBox="0 0 251.22 74.58"><defs><style>.cls-1{fill:none;}.cls-2{font-size:30.19px;fill:#505252;font-family:Avenir-Black, Avenir;}.cls-3{letter-spacing:0.01em;}.cls-4{letter-spacing:0.03em;}.cls-5{letter-spacing:0.05em;}.cls-6{letter-spacing:0.01em;}.cls-7{letter-spacing:-0.02em;}.cls-8{letter-spacing:0.03em;}.cls-9{letter-spacing:0.07em;}.cls-10{clip-path:url(#clip-path);}.cls-11{fill:#90bd51;}.cls-12{fill:#f78e1e;}.cls-13{fill:#febd11;}.cls-14{fill:#3cc6ee;}</style><clipPath id="clip-path" transform="translate(0 -3.07)"><rect class="cls-1" width="289.23" height="95.49"/></clipPath></defs><title>logoAsset 4</title><g id="Layer_2" data-name="Layer 2"><g id="Layer_1-2" data-name="Layer 1"><text class="cls-2" transform="translate(76.68 34.31)"><tspan class="cls-3">K</tspan><tspan class="cls-4" x="22.1" y="0">O</tspan><tspan class="cls-5" x="48.13" y="0">KE</tspan><tspan class="cls-4" x="91.96" y="0">I</tspan><tspan class="cls-3" x="101.8" y="0">L</tspan><tspan class="cls-6" x="118.32" y="0">U</tspan><tspan x="140.96" y="0">N</tspan></text><text class="cls-2" transform="translate(242.28 34.31)"> </text><text class="cls-2" transform="translate(76.68 60.78)"><tspan class="cls-7">P</tspan><tspan class="cls-8" x="18.33" y="0">A</tspan><tspan class="cls-4" x="41.57" y="0">IK</tspan><tspan class="cls-9" x="74.12" y="0">K</tspan><tspan x="98.03" y="0">A</tspan></text><g class="cls-10"><path class="cls-11" d="M0,13V33.61s0,3.7,3.7,3.7H24.27V16.74s0-3.7-3.7-3.7Z" transform="translate(0 -3.07)"/><path class="cls-12" d="M28.87,42V60.42a3.25,3.25,0,0,0,3.32,3.32H50.64V45.29A3.25,3.25,0,0,0,47.32,42Z" transform="translate(0 -3.07)"/><path class="cls-13" d="M24.27,42H11.56a2.24,2.24,0,0,0-2.29,2.29V57H22a2.24,2.24,0,0,0,2.29-2.29Z" transform="translate(0 -3.07)"/><path class="cls-14" d="M28.87,37.2V8.27s0-5.2,5.2-5.2H63V32s0,5.2-5.2,5.2Z" transform="translate(0 -3.07)"/></g></g></g></svg>